<?xml version="1.0" encoding="UTF-8"?>
<svg version="1.1" xmlns="http://www.w3.org/2000/svg" width="256" height="256">
<path d="M0 0 C0 0.99 0 1.98 0 3 C-2.05658193 4.99953805 -4.10056142 6.81217394 -6.3125 8.625 C-6.9511499 9.15988037 -7.5897998 9.69476074 -8.24780273 10.24584961 C-10.15719554 11.84054663 -12.07645004 13.42242329 -14 15 C-15.44632813 16.18916016 -15.44632813 16.18916016 -16.921875 17.40234375 C-18.68619487 18.84564092 -20.45313921 20.28573566 -22.22265625 21.72265625 C-25.34396367 24.28204054 -28.4245003 26.88593791 -31.5 29.5 C-36.34954051 33.62107792 -41.25160964 37.66991483 -46.1875 41.6875 C-49.31799666 44.26146392 -52.41172461 46.87569086 -55.5 49.5 C-60.34959381 53.62101634 -65.25160806 57.66991354 -70.1875 61.6875 C-73.87572436 64.72004003 -77.51262854 67.81093999 -81.15087891 70.90307617 C-84.69561403 73.91055412 -88.27146815 76.87537473 -91.875 79.8125 C-93.19951172 80.8953125 -93.19951172 80.8953125 -94.55078125 82 C-96.08652838 83.25407102 -97.62515662 84.50463093 -99.16796875 85.75 C-102.24652715 88.28901724 -104.49041422 90.29336449 -106 94 C-106.35326088 98.76902183 -106.02843665 102.63886119 -104 107 C-103.44957031 107.27070313 -102.89914063 107.54140625 -102.33203125 107.8203125 C-98.93736087 109.53754945 -96.2742024 112.06584639 -93.4375 114.5625 C-92.18052196 115.65460701 -90.92270059 116.74574409 -89.6640625 117.8359375 C-89.04305664 118.37444336 -88.42205078 118.91294922 -87.78222656 119.46777344 C-83.59529771 123.06738515 -79.28943867 126.523966 -75 130 C-69.11912057 134.77875268 -63.27608821 139.59534105 -57.5 144.5 C-48.83111121 151.84820207 -48.83111121 151.84820207 -40 159 C-38.86304687 159.93585938 -38.86304687 159.93585938 -37.703125 160.890625 C-32.71126291 164.67877567 -28.92946105 165.64287691 -22.67578125 165.50390625 C-16.12003461 164.26932039 -11.78471837 160.32542578 -7 156 C-2.11397757 151.66920739 2.82597932 147.48251299 8 143.5 C13.709536 139.09136069 19.17435193 134.45068539 24.60107422 129.69970703 C29.07661665 125.78462908 33.63247231 121.98856254 38.25390625 118.24609375 C41.38989473 115.68109606 44.47755315 113.0634254 47.5625 110.4375 C52.11274323 106.56746831 56.7283332 102.80039718 61.41015625 99.08984375 C64.46083734 96.62813276 67.45101981 94.10137934 70.4375 91.5625 C72.08538044 90.16557939 73.73356775 88.76902166 75.38183594 87.37255859 C76.45134319 86.4653815 77.51972439 85.55687499 78.58691406 84.64697266 C80.07304 83.38287375 81.56760599 82.12871778 83.0625 80.875 C83.91972656 80.15054688 84.77695313 79.42609375 85.66015625 78.6796875 C87.87646139 77.08868381 89.33442106 76.40630072 92 76 C92.6509259 77.24735567 93.29551669 78.49801832 93.9375 79.75 C94.47697266 80.79414063 94.47697266 80.79414063 95.02734375 81.859375 C98.0988726 88.61920557 97.95684136 96.1248995 95.5 103.0625 C91.54733969 111.87679477 84.40829606 117.72633203 76.98828125 123.6171875 C73.76988514 126.18349028 70.63170244 128.82942699 67.5 131.5 C62.64763324 135.62497482 57.74184598 139.6766752 52.80078125 143.6953125 C49.73224213 146.22033075 46.70960188 148.79484769 43.6875 151.375 C38.69017493 155.63659541 33.57083878 159.70705186 28.37841797 163.72729492 C23.8878467 167.23341868 19.58938024 170.92508271 15.3125 174.6875 C1.85372518 186.45724942 -11.17466465 195.88383388 -29.875 194.875 C-46.76236125 192.96942227 -57.01416787 185.05561283 -69.296875 174.23828125 C-73.2028902 170.80406002 -77.21670301 167.51584593 -81.2578125 164.2421875 C-84.37000148 161.69746317 -87.43726497 159.10381775 -90.5 156.5 C-94.46899152 153.12711398 -98.4601718 149.78823226 -102.5 146.5 C-107.09883957 142.75675849 -111.63056124 138.94140563 -116.14648438 135.09912109 C-120.56085037 131.35060182 -125.04423711 127.69318793 -129.5625 124.0703125 C-136.70204285 118.0062777 -140.38211899 112.80433674 -141.38671875 103.3671875 C-141.64735787 94.46950711 -141.03615423 86.37190511 -134.79296875 79.609375 C-131.59204393 76.61886062 -128.32200442 73.72967305 -125 70.875 C-124.01314209 70.02349365 -124.01314209 70.02349365 -123.00634766 69.15478516 C-117.23100514 64.17968255 -111.41789476 59.24980429 -105.58837891 54.33837891 C-102.91091047 52.08232573 -100.23627043 49.82293394 -97.5625 47.5625 C-97.03011719 47.11261719 -96.49773437 46.66273437 -95.94921875 46.19921875 C-92.50778995 43.28724054 -89.08328959 40.35628733 -85.66601562 37.41601562 C-80.14502884 32.66567912 -74.57439632 27.9977446 -68.91015625 23.41796875 C-66.03794257 21.03152543 -63.24365496 18.57473982 -60.45043945 16.09716797 C-42.57232348 0.31143382 -23.67859372 -8.42797404 0 0 Z " fill="#05619B" transform="translate(145,61)"/>
<path d="M0 0 C4.49204154 3.07537745 8.43426685 6.78348688 12.38769531 10.50878906 C14.6907567 12.63887673 17.11696013 14.59897958 19.5625 16.5625 C23.58358091 19.82778303 27.55345162 23.14557844 31.5 26.5 C35.46903543 29.87283589 39.46017021 33.21176645 43.5 36.5 C48.1045358 40.24787798 52.64019191 44.06983444 57.1640625 47.9140625 C60.5805954 50.81244823 64.02504838 53.671551 67.5 56.5 C71.65214054 59.88502953 75.77603279 63.30092567 79.875 66.75 C80.41060547 67.19794922 80.94621094 67.64589844 81.49804688 68.10742188 C88.85672216 74.32120916 93.4757855 78.9076046 94.3203125 88.72265625 C94.64768068 96.8218803 93.90925747 103.73995041 90 111 C85.06866091 111 83.40151016 109.18175085 79.9375 106.0625 C78.770253 105.04214251 77.60227337 104.02262256 76.43359375 103.00390625 C75.85335449 102.49359863 75.27311523 101.98329102 74.67529297 101.45751953 C72.32833205 99.41564301 69.91824455 97.45661197 67.5 95.5 C63.46015762 92.2117562 59.46938711 88.8724342 55.5 85.5 C51.37253666 81.99840997 47.23507683 78.51039591 43.0625 75.0625 C42.22847656 74.37285156 41.39445313 73.68320313 40.53515625 72.97265625 C37.77123634 70.82199438 34.93455395 68.90938227 32 67 C31.11699219 67.76183594 30.23398438 68.52367188 29.32421875 69.30859375 C22.87316723 74.86298797 16.38621187 80.35598361 9.77734375 85.72265625 C6.65603633 88.28204054 3.5754997 90.88593791 0.5 93.5 C-4.34954051 97.62107792 -9.25160964 101.66991483 -14.1875 105.6875 C-17.31799666 108.26146392 -20.41172461 110.87569086 -23.5 113.5 C-28.34959381 117.62101634 -33.25160806 121.66991354 -38.1875 125.6875 C-41.31799666 128.26146392 -44.41172461 130.87569086 -47.5 133.5 C-52.34959381 137.62101634 -57.25160806 141.66991354 -62.1875 145.6875 C-65.31801014 148.261475 -68.41122409 150.87626452 -71.5 153.5 C-73.1335426 154.88332766 -74.7677175 156.26590227 -76.40234375 157.64794922 C-77.45816869 158.54146366 -78.51287811 159.43629812 -79.56640625 160.33251953 C-81.03882703 161.58228845 -82.51926973 162.82258742 -84 164.0625 C-84.845625 164.77535156 -85.69125 165.48820313 -86.5625 166.22265625 C-88.98068088 167.98591314 -91.18143098 169.02860032 -94 170 C-95.80167496 168.61710902 -97.59101287 167.21813511 -99.375 165.8125 C-100.37273437 165.03519531 -101.37046875 164.25789062 -102.3984375 163.45703125 C-105.6034933 160.4300341 -106.88754505 158.15538649 -107.1171875 153.75390625 C-107.03726563 153.03074219 -106.95734375 152.30757812 -106.875 151.5625 C-106.81054688 150.84191406 -106.74609375 150.12132812 -106.6796875 149.37890625 C-104.92336903 143.23179161 -100.6551824 139.59394772 -95.6875 135.9375 C-90.4001972 131.92007342 -85.30389684 127.75486597 -80.3125 123.375 C-75.19536156 118.89333601 -70.01849182 114.51478363 -64.73046875 110.234375 C-61.68033427 107.73841374 -58.68415008 105.18460129 -55.6875 102.625 C-51.25158277 98.84196554 -46.73398738 95.19466784 -42.125 91.625 C-36.37972845 87.16948329 -30.86904559 82.48856595 -25.39941406 77.70019531 C-20.92868274 73.78917996 -16.37744 69.99730565 -11.76171875 66.2578125 C-7.47514557 62.75337219 -3.26214147 59.16315619 0.95703125 55.578125 C3.95807226 53.03552286 6.97502953 50.51402628 10 48 C0.36662585 39.67974176 0.36662585 39.67974176 -9.4375 31.5625 C-13.87239804 27.96363576 -18.19559949 24.25259578 -22.5 20.5 C-32.60987159 11.5764149 -32.60987159 11.5764149 -43.30078125 3.3828125 C-43.86152344 2.92648438 -44.42226562 2.47015625 -45 2 C-45 1.34 -45 0.68 -45 0 C-30.51602686 -5.14169569 -14.29434667 -6.93406954 0 0 Z " fill="#373C40" transform="translate(158,5)"/>
<path d="M0 0 C4.13211732 1.37981893 6.6669732 3.26200362 9.8125 6.25 C13.57160559 9.74985693 17.38345054 12.88259118 21.6015625 15.80859375 C22.29378906 16.39833984 22.29378906 16.39833984 23 17 C23 17.66 23 18.32 23 19 C21.49212839 20.37491299 19.91460239 21.67364462 18.3125 22.9375 C17.30832031 23.74058594 16.30414063 24.54367188 15.26953125 25.37109375 C14.73408691 25.79890137 14.19864258 26.22670898 13.64697266 26.66748047 C10.89091543 28.89732932 8.19768676 31.20018076 5.5 33.5 C0.65113313 37.62185758 -4.25162929 41.66993082 -9.1875 45.6875 C-12.31799666 48.26146392 -15.41172461 50.87569086 -18.5 53.5 C-23.34959381 57.62101634 -28.25160806 61.66991354 -33.1875 65.6875 C-36.31799666 68.26146392 -39.41172461 70.87569086 -42.5 73.5 C-47.34898783 77.6205014 -52.24867794 81.67080082 -57.1875 85.68359375 C-59.76481481 87.80629887 -62.30461214 89.96511183 -64.83837891 92.13916016 C-84.5356351 109.01177309 -84.5356351 109.01177309 -98 108 C-104.02906919 106.03132435 -109.3864522 101.29442888 -114 97 C-114 96.34 -114 95.68 -114 95 C-112.49212839 93.62508701 -110.91460239 92.32635538 -109.3125 91.0625 C-108.30832031 90.25941406 -107.30414063 89.45632812 -106.26953125 88.62890625 C-105.46636475 87.98719482 -105.46636475 87.98719482 -104.64697266 87.33251953 C-101.89091543 85.10267068 -99.19768676 82.79981924 -96.5 80.5 C-91.65113313 76.37814242 -86.74837071 72.33006918 -81.8125 68.3125 C-78.68200334 65.73853608 -75.58827539 63.12430914 -72.5 60.5 C-67.65040619 56.37898366 -62.74839194 52.33008646 -57.8125 48.3125 C-54.68200334 45.73853608 -51.58827539 43.12430914 -48.5 40.5 C-43.65040619 36.37898366 -38.74839194 32.33008646 -33.8125 28.3125 C-30.12427564 25.27995997 -26.48737146 22.18906001 -22.84912109 19.09692383 C-18.4298922 15.34749461 -13.95160191 11.67445558 -9.45703125 8.015625 C-6.26033022 5.39321207 -3.12446878 2.70787294 0 0 Z " fill="#373C40" transform="translate(213,108)"/>
<path d="M0 0 C4.04665201 1.69187651 7.15034764 4.4836706 10.4375 7.3125 C10.99759766 7.78623047 11.55769531 8.25996094 12.13476562 8.74804688 C15.58507684 11.6910778 18.83502791 14.75220621 22 18 C15.7799213 23.7628969 9.48129374 29.32280121 2.8828125 34.65234375 C-0.28016047 37.22815236 -3.39317672 39.85705222 -6.5 42.5 C-11.34934575 46.62130338 -16.2516153 50.66991943 -21.1875 54.6875 C-24.31799666 57.26146392 -27.41172461 59.87569086 -30.5 62.5 C-35.34820125 66.61983299 -40.24845845 70.66795964 -45.18359375 74.68359375 C-48.33785097 77.27787188 -51.45206371 79.91602391 -54.5625 82.5625 C-58.30855331 85.74913103 -62.0780596 88.88790939 -65.9375 91.9375 C-70.09589228 95.22758198 -74.11527044 98.65725478 -78.125 102.125 C-82.94706195 106.29372938 -87.82301937 110.27257395 -93 114 C-98.32184629 107.7105453 -98.57743141 100.83174499 -98.421875 92.8828125 C-97.09467468 80.66765395 -89.06288809 73.29091812 -80 66 C-77.16048876 63.7302128 -74.30286146 61.48483499 -71.42382812 59.26538086 C-66.97785546 55.82582578 -62.72122585 52.2107698 -58.5 48.5 C-53.20039918 43.84540739 -47.7843762 39.41282255 -42.20581055 35.09814453 C-37.35410484 31.32665059 -32.68940961 27.36445773 -28.04321289 23.34399414 C-23.67530862 19.56626413 -19.23674643 15.88714874 -14.75390625 12.24609375 C-9.80088406 8.2063948 -4.90373149 4.0992799 0 0 Z " fill="#383C40" transform="translate(103,16)"/>
<path d="M0 0 C-1.65167557 3.5786304 -3.78286492 6.74820188 -6 10 C-7.9375 9.6875 -7.9375 9.6875 -10 9 C-10.33 8.01 -10.66 7.02 -11 6 C-7.69706937 0.30529202 -6.46660935 -1.53156537 0 0 Z " fill="#19699D" transform="translate(45,145)"/>
<path d="M0 0 C1.32 0 2.64 0 4 0 C4 0.66 4 1.32 4 2 C2.32783424 3.54331236 0.58548462 5.01114909 -1.1875 6.4375 C-2.63189453 7.61119141 -2.63189453 7.61119141 -4.10546875 8.80859375 C-6.66148562 10.74371583 -9.21630982 12.41731692 -12 14 C-12.625 12.125 -12.625 12.125 -13 10 C-11 8 -11 8 -8.375 7.875 C-7.59125 7.91625 -6.8075 7.9575 -6 8 C-6 7.34 -6 6.68 -6 6 C-5.34 5.67 -4.68 5.34 -4 5 C-3.67 4.34 -3.34 3.68 -3 3 C-2.34 3.33 -1.68 3.66 -1 4 C-0.67 2.68 -0.34 1.36 0 0 Z " fill="#226997" transform="translate(214,186)"/>
<path d="M0 0 C0 1.65 0 3.3 0 5 C-0.556875 5.061875 -1.11375 5.12375 -1.6875 5.1875 C-4.25004912 5.89543117 -4.25004912 5.89543117 -6.375 8.4375 C-9.19948555 11.1947359 -11.22404378 12.03405771 -15 13 C-12.2536824 9.34464487 -9.40713195 6.50692328 -5.8125 3.6875 C-4.93207031 2.99011719 -4.05164063 2.29273438 -3.14453125 1.57421875 C-1 0 -1 0 0 0 Z " fill="#296B96" transform="translate(233,139)"/>
<path d="M0 0 C4.01970694 0.4872372 6.65977678 1.99526077 10.0859375 4.078125 C13.31331188 5.63253388 16.45126319 5.75096584 20 6 C20 6.99 20 7.98 20 9 C12.54601536 8.51387057 5.08246731 5.6435189 0 0 Z " fill="#3A7AA4" transform="translate(88,245)"/>
<path d="M0 0 C0.72832031 0.00515625 1.45664063 0.0103125 2.20703125 0.015625 C7.56470238 0.09485119 7.56470238 0.09485119 9.875 1.25 C9.875 1.91 9.875 2.57 9.875 3.25 C2.615 3.25 -4.645 3.25 -12.125 3.25 C-7.6707462 -0.09069035 -5.25660152 -0.15045729 0 0 Z " fill="#2A719E" transform="translate(126.125,57.75)"/>
<path d="M0 0 C0.5775 0.226875 1.155 0.45375 1.75 0.6875 C0.58709195 4.17622415 -0.38967609 4.78726864 -3.3125 6.875 C-4.04597656 7.40480469 -4.77945313 7.93460938 -5.53515625 8.48046875 C-6.10105469 8.87878906 -6.66695313 9.27710938 -7.25 9.6875 C-8.25 7.6875 -8.25 7.6875 -7.5625 5.25 C-5.7962817 1.80166903 -4.10862339 -0.57064214 0 0 Z " fill="#474C4F" transform="translate(97.25,145.3125)"/>
<path d="M0 0 C1.98 0.66 3.96 1.32 6 2 C6 2.99 6 3.98 6 5 C7.98 5.66 9.96 6.32 12 7 C12 7.99 12 8.98 12 10 C12.99 10.33 13.98 10.66 15 11 C14.34 11.66 13.68 12.32 13 13 C10.82727712 11.21526335 8.66186229 9.42280648 6.5 7.625 C5.87996094 7.11710938 5.25992187 6.60921875 4.62109375 6.0859375 C3.04294593 4.76792394 1.51707513 3.38787368 0 2 C0 1.34 0 0.68 0 0 Z " fill="#31729C" transform="translate(20,187)"/>
<path d="M0 0 C-1.74604549 1.4630657 -3.49699453 2.9202808 -5.25 4.375 C-6.22453125 5.18710938 -7.1990625 5.99921875 -8.203125 6.8359375 C-10.4552682 8.57851757 -12.40711386 9.876416 -15 11 C-13.06034099 6.41535143 -10.03125503 2.4157232 -5.9375 -0.4375 C-3.59041339 -1.11891224 -2.31320369 -0.65885427 0 0 Z " fill="#515659" transform="translate(170,182)"/>
<path d="M0 0 C0.33 0.99 0.66 1.98 1 3 C-0.98 3.99 -0.98 3.99 -3 5 C-3 5.66 -3 6.32 -3 7 C-3.99 7 -4.98 7 -6 7 C-6.309375 7.78375 -6.61875 8.5675 -6.9375 9.375 C-8 12 -8 12 -9 14 C-9.66 14 -10.32 14 -11 14 C-9.29184052 7.32264932 -5.50914377 3.87680487 0 0 Z " fill="#38739B" transform="translate(17,135)"/>
<path d="M0 0 C2.16874252 0.50603992 3.99967627 0.99983813 6 2 C6.33 2.99 6.66 3.98 7 5 C8.95597184 6.39712274 10.95436401 7.73779907 13 9 C12.67 9.99 12.34 10.98 12 12 C9.99394062 10.38201759 7.99523205 8.75623702 6 7.125 C5.42765625 6.66480469 4.8553125 6.20460937 4.265625 5.73046875 C2.80601181 4.53150078 1.3986243 3.26958455 0 2 C0 1.34 0 0.68 0 0 Z " fill="#2F6F9A" transform="translate(49,211)"/>
<path d="M0 0 C0.99 0.33 1.98 0.66 3 1 C2 4 2 4 -0.8125 5.4375 C-1.864375 5.953125 -2.91625 6.46875 -4 7 C-5.051875 8.11375 -5.051875 8.11375 -6.125 9.25 C-6.74375 9.8275 -7.3625 10.405 -8 11 C-10.1171875 10.609375 -10.1171875 10.609375 -12 10 C-10.82630859 9.04287109 -10.82630859 9.04287109 -9.62890625 8.06640625 C-8.61699219 7.24011719 -7.60507813 6.41382813 -6.5625 5.5625 C-5.55316406 4.73878906 -4.54382813 3.91507813 -3.50390625 3.06640625 C-1.70216039 1.58798996 -1.70216039 1.58798996 0 0 Z " fill="#2E7098" transform="translate(169,191)"/>
<path d="M0 0 C1.32 0.33 2.64 0.66 4 1 C0.7 3.97 -2.6 6.94 -6 10 C-6.33 8.68 -6.66 7.36 -7 6 C-5.4657452 3.81974318 -4.35666511 3.11209475 -1.8125 2.3125 C-1.214375 2.209375 -0.61625 2.10625 0 2 C0 1.34 0 0.68 0 0 Z " fill="#276A98" transform="translate(126,75)"/>
<path d="M0 0 C0.66 0.33 1.32 0.66 2 1 C1.64950425 4.24208567 1.43778819 5.61527704 -1.0625 7.8125 C-1.701875 8.204375 -2.34125 8.59625 -3 9 C-3.99 8.34 -4.98 7.68 -6 7 C-4.63016497 3.83884224 -4.0109362 3.0072908 -1 1 C-0.67 0.67 -0.34 0.34 0 0 Z " fill="#196BA4" transform="translate(184,209)"/>
<path d="M0 0 C0.33 0.99 0.66 1.98 1 3 C0.01 4.485 0.01 4.485 -1 6 C-0.01 6.66 0.98 7.32 2 8 C1.67 8.66 1.34 9.32 1 10 C-1.97 9.505 -1.97 9.505 -5 9 C-5 8.34 -5 7.68 -5 7 C-5.66 6.67 -6.32 6.34 -7 6 C-4.69 4.02 -2.38 2.04 0 0 Z " fill="#454A4D" transform="translate(116,189)"/>
<path d="M0 0 C3.9374409 2.2242582 7.3373337 4.79850633 10.8125 7.6875 C11.78832031 8.49574219 12.76414062 9.30398437 13.76953125 10.13671875 C14.50558594 10.75160156 15.24164063 11.36648437 16 12 C15.01 12.33 14.02 12.66 13 13 C10.3125 11.1875 10.3125 11.1875 8 9 C8 8.34 8 7.68 8 7 C6.35 6.67 4.7 6.34 3 6 C2.67 4.68 2.34 3.36 2 2 C1.34 2 0.68 2 0 2 C0 1.34 0 0.68 0 0 Z " fill="#337199" transform="translate(58,182)"/>
<path d="M0 0 C0 3.69418201 -1.28179295 5.77836178 -3 9 C-3.66 9 -4.32 9 -5 9 C-5.33 9.66 -5.66 10.32 -6 11 C-7.32 10.01 -8.64 9.02 -10 8 C-6.7 5.36 -3.4 2.72 0 0 Z " fill="#454A4D" transform="translate(142,75)"/>
<path d="M0 0 C0.99 0.33 1.98 0.66 3 1 C1.40112446 2.48488441 -0.20428905 3.96273145 -1.8125 5.4375 C-2.70582031 6.26121094 -3.59914063 7.08492188 -4.51953125 7.93359375 C-7 10 -7 10 -10 11 C-10 9.68 -10 8.36 -10 7 C-8.35 6.67 -6.7 6.34 -5 6 C-5 5.34 -5 4.68 -5 4 C-2.6875 1.8125 -2.6875 1.8125 0 0 Z " fill="#317199" transform="translate(108,91)"/>
<path d="M0 0 C0.99 0.66 1.98 1.32 3 2 C2.67 2.33 2.34 2.66 2 3 C2.66 3.33 3.32 3.66 4 4 C3.1875 5.9375 3.1875 5.9375 2 8 C1.01 8.33 0.02 8.66 -1 9 C-1.66 7.02 -2.32 5.04 -3 3 C-2.01 2.67 -1.02 2.34 0 2 C0 1.34 0 0.68 0 0 Z " fill="#54575A" transform="translate(10,121)"/>
<path d="M0 0 C0.75 1.6875 0.75 1.6875 1 4 C-0.9375 6.75 -0.9375 6.75 -3 9 C-4.65 8.67 -6.3 8.34 -8 8 C-5.33333333 5.33333333 -2.66666667 2.66666667 0 0 Z " fill="#266C9C" transform="translate(86,76)"/>
<path d="M0 0 C2.4375 0.75 2.4375 0.75 5 2 C5.6875 3.9375 5.6875 3.9375 6 6 C6.99 7.485 6.99 7.485 8 9 C3.61031544 9 2.23094261 6.87194899 -1 4 C-0.67 2.68 -0.34 1.36 0 0 Z " fill="#464B4F" transform="translate(204,78)"/>
<path d="M0 0 C0.33 0.66 0.66 1.32 1 2 C-0.46519774 4.54140493 -1.95224699 6.88875077 -4 9 C-7.3125 9.4375 -7.3125 9.4375 -10 9 C-6.83047153 5.73991357 -3.60062011 2.77762123 0 0 Z " fill="#2F709C" transform="translate(51,106)"/>
<path d="M0 0 C5.52058499 1.02233055 9.2343909 3.97469372 13 8 C13.66 8.66 14.32 9.32 15 10 C14.01 10.33 13.02 10.66 12 11 C10.37438849 9.54234835 8.74953066 8.08385614 7.125 6.625 C6.22007812 5.81289063 5.31515625 5.00078125 4.3828125 4.1640625 C2.89103817 2.80923795 1.42494565 1.42494565 0 0 Z " fill="#4F5356" transform="translate(126,17)"/>
<path d="M0 0 C0.66 0.33 1.32 0.66 2 1 C-0.40242227 4.17462943 -2.61713276 6.85751741 -6 9 C-6.66 9 -7.32 9 -8 9 C-8 9.66 -8 10.32 -8 11 C-9.32 10.67 -10.64 10.34 -12 10 C-10.82630859 9.04287109 -10.82630859 9.04287109 -9.62890625 8.06640625 C-8.61699219 7.24011719 -7.60507813 6.41382813 -6.5625 5.5625 C-5.55316406 4.73878906 -4.54382813 3.91507813 -3.50390625 3.06640625 C-1.70216039 1.58798996 -1.70216039 1.58798996 0 0 Z " fill="#5B5D60" transform="translate(171,143)"/>
<path d="M0 0 C2.64 0 5.28 0 8 0 C8.93423645 3.01031744 9.04449911 3.86650268 8 7 C6.66382648 6.02471263 5.3311249 5.04466681 4 4.0625 C3.2575 3.51722656 2.515 2.97195312 1.75 2.41015625 C1.1725 1.94480469 0.595 1.47945312 0 1 C0 0.67 0 0.34 0 0 Z " fill="#2A6E9C" transform="translate(76,235)"/>
<path d="M0 0 C2.99220268 1.36370299 5.29026529 2.94908083 7.75 5.125 C8.67039062 5.93324219 8.67039062 5.93324219 9.609375 6.7578125 C10.06828125 7.16773438 10.5271875 7.57765625 11 8 C10.34 8.66 9.68 9.32 9 10 C8.67 9.01 8.34 8.02 8 7 C6.68 7 5.36 7 4 7 C0 2.77777778 0 2.77777778 0 0 Z " fill="#3F789E" transform="translate(88,207)"/>
<path d="M0 0 C0.598125 0.185625 1.19625 0.37125 1.8125 0.5625 C4.16408762 1.22093687 4.16408762 1.22093687 7 0 C7 0.66 7 1.32 7 2 C5.46875 3.2890625 5.46875 3.2890625 3.5 4.625 C2.8503125 5.07101563 2.200625 5.51703125 1.53125 5.9765625 C1.0259375 6.31429687 0.520625 6.65203125 0 7 C-0.66 6.34 -1.32 5.68 -2 5 C-1.34 3.35 -0.68 1.7 0 0 Z " fill="#474C51" transform="translate(205,145)"/>
<path d="M0 0 C0 3 0 3 -1 5 C-5.93467213 6.08562787 -10.05118487 5.90896604 -15 5 C-15 4.67 -15 4.34 -15 4 C-14.16855469 3.87882813 -13.33710937 3.75765625 -12.48046875 3.6328125 C-11.39378906 3.46523437 -10.30710937 3.29765625 -9.1875 3.125 C-8.10855469 2.96257812 -7.02960938 2.80015625 -5.91796875 2.6328125 C-2.82678207 2.14867662 -2.82678207 2.14867662 0 0 Z " fill="#4581A9" transform="translate(131,223)"/>
<path d="M0 0 C0.66 0.99 1.32 1.98 2 3 C0.35 4.65 -1.3 6.3 -3 8 C-4.32 7.34 -5.64 6.68 -7 6 C-4.69 4.02 -2.38 2.04 0 0 Z " fill="#246C9C" transform="translate(209,158)"/>
<path d="M0 0 C0.33 1.32 0.66 2.64 1 4 C0.360625 4.103125 -0.27875 4.20625 -0.9375 4.3125 C-1.618125 4.539375 -2.29875 4.76625 -3 5 C-3.33 5.99 -3.66 6.98 -4 8 C-5.65 8.33 -7.3 8.66 -9 9 C-6.31941902 5.42589203 -3.57410797 2.68058098 0 0 Z " fill="#2E709E" transform="translate(27,126)"/>
<path d="M0 0 C0.33 0.66 0.66 1.32 1 2 C1.66 2 2.32 2 3 2 C3 2.66 3 3.32 3 4 C2.34 4 1.68 4 1 4 C1 4.66 1 5.32 1 6 C-2 7 -2 7 -4.1875 6.0625 C-4.785625 5.711875 -5.38375 5.36125 -6 5 C-4.02 3.35 -2.04 1.7 0 0 Z " fill="#226FA0" transform="translate(216,152)"/>
<path d="M0 0 C0.66 0 1.32 0 2 0 C1.875 2.25 1.875 2.25 1 5 C-2.0625 7.3125 -2.0625 7.3125 -5 9 C-5 7.35 -5 5.7 -5 4 C-4.01 3.67 -3.02 3.34 -2 3 C-1.34 2.01 -0.68 1.02 0 0 Z " fill="#246CA0" transform="translate(136,66)"/>
<path d="M0 0 C1.98 0.66 3.96 1.32 6 2 C4.3545622 3.68762851 2.68711423 5.3540349 1 7 C0.67 7 0.34 7 0 7 C0 4.69 0 2.38 0 0 Z " fill="#38729C" transform="translate(140,60)"/>
<path d="M0 0 C0.66 0.33 1.32 0.66 2 1 C1.01 2.98 0.02 4.96 -1 7 C-2.98 7 -4.96 7 -7 7 C-4.66666667 4.66666667 -2.33333333 2.33333333 0 0 Z M-5 8 C-3 9 -3 9 -3 9 Z " fill="#595C5F" transform="translate(115,97)"/>
<path d="M0 0 C2.95409701 1.37154504 5.44008376 2.98863724 8 5 C7.67 5.66 7.34 6.32 7 7 C6.01 7 5.02 7 4 7 C4 6.34 4 5.68 4 5 C3.34 5 2.68 5 2 5 C1.34 3.35 0.68 1.7 0 0 Z " fill="#3778A1" transform="translate(106,222)"/>
<path d="M0 0 C0.66 0.33 1.32 0.66 2 1 C1.1875 2.9375 1.1875 2.9375 0 5 C-0.99 5.33 -1.98 5.66 -3 6 C-3.33 6.66 -3.66 7.32 -4 8 C-5.32 7.67 -6.64 7.34 -8 7 C-5.36 4.69 -2.72 2.38 0 0 Z " fill="#3D7BA3" transform="translate(140,215)"/>
<path d="M0 0 C2.875 -0.125 2.875 -0.125 6 0 C8 2 8 2 8 6 C4.63408134 4.55746343 2.48952921 2.66735273 0 0 Z " fill="#2F739C" transform="translate(40,205)"/>
<path d="M0 0 C0.33 0.66 0.66 1.32 1 2 C3.02463255 2.65213292 3.02463255 2.65213292 5 3 C5 3.99 5 4.98 5 6 C5.99 6.33 6.98 6.66 8 7 C7.34 7.66 6.68 8.32 6 9 C1.2 5.67692308 1.2 5.67692308 0.1875 2.25 C0.125625 1.5075 0.06375 0.765 0 0 Z " fill="#2A6B96" transform="translate(9,176)"/>
<path d="M0 0 C0.33 0.99 0.66 1.98 1 3 C0.0479279 4.00596297 -0.91187346 5.00461563 -1.875 6 C-2.40867188 6.556875 -2.94234375 7.11375 -3.4921875 7.6875 C-5 9 -5 9 -7 9 C-7 8.34 -7 7.68 -7 7 C-6.34 7 -5.68 7 -5 7 C-5 5.68 -5 4.36 -5 3 C-3.68 3 -2.36 3 -1 3 C-0.67 2.01 -0.34 1.02 0 0 Z " fill="#36739C" transform="translate(235,169)"/>
<path d="M0 0 C0 0.66 0 1.32 0 2 C-1.53125 3.2890625 -1.53125 3.2890625 -3.5 4.625 C-4.1496875 5.07101563 -4.799375 5.51703125 -5.46875 5.9765625 C-5.9740625 6.31429687 -6.479375 6.65203125 -7 7 C-7 4 -7 4 -6 1 C-4 0 -4 0 0 0 Z " fill="#4F5256" transform="translate(194,160)"/>
<path d="M0 0 C0.99 0.33 1.98 0.66 3 1 C4.1875 4.0625 4.1875 4.0625 5 7 C4.01 7 3.02 7 2 7 C0.5393715 4.35261084 0 3.10551666 0 0 Z " fill="#44484B" transform="translate(245,79)"/>
<path d="M0 0 C0 0.66 0 1.32 0 2 C-1.75 3.5078125 -1.75 3.5078125 -4 5.125 C-4.7425 5.66382812 -5.485 6.20265625 -6.25 6.7578125 C-6.8275 7.16773437 -7.405 7.57765625 -8 8 C-8 5 -8 5 -7 3 C-6.01 3 -5.02 3 -4 3 C-4 2.34 -4 1.68 -4 1 C-2 0 -2 0 0 0 Z " fill="#505358" transform="translate(146,107)"/>
<path d="M0 0 C3.39914975 1.13304992 4.05254451 2.12518475 6 5 C5 6 5 6 2.4375 6.0625 C1.2309375 6.0315625 1.2309375 6.0315625 0 6 C-1.125 2.25 -1.125 2.25 0 0 Z " fill="#313539" transform="translate(17,88)"/>
<path d="M0 0 C0.66 0.33 1.32 0.66 2 1 C0.02 3.31 -1.96 5.62 -4 8 C-4.99 7.34 -5.98 6.68 -7 6 C-4.69 4.02 -2.38 2.04 0 0 Z " fill="#595C5E" transform="translate(98,20)"/>
<path d="M0 0 C1.32 0 2.64 0 4 0 C4 0.66 4 1.32 4 2 C2.46875 3.2890625 2.46875 3.2890625 0.5 4.625 C-0.1496875 5.07101563 -0.799375 5.51703125 -1.46875 5.9765625 C-1.9740625 6.31429687 -2.479375 6.65203125 -3 7 C-3.33 5.68 -3.66 4.36 -4 3 C-3.01 3.33 -2.02 3.66 -1 4 C-0.67 2.68 -0.34 1.36 0 0 Z " fill="#2F74A0" transform="translate(214,186)"/>
<path d="M0 0 C0.33 0.66 0.66 1.32 1 2 C1.66 2.33 2.32 2.66 3 3 C1.8125 4.5625 1.8125 4.5625 0 6 C-2.6875 5.6875 -2.6875 5.6875 -5 5 C-3.35 3.35 -1.7 1.7 0 0 Z " fill="#2A71A1" transform="translate(33,121)"/>
<path d="M0 0 C0.66 0.33 1.32 0.66 2 1 C-0.88341534 5.21422242 -3.04303419 6.76075855 -8 8 C-5.33333333 5.33333333 -2.66666667 2.66666667 0 0 Z " fill="#676A6B" transform="translate(213,108)"/>
<path d="M0 0 C0.66 0.33 1.32 0.66 2 1 C1.67 1.66 1.34 2.32 1 3 C1.99 3.33 2.98 3.66 4 4 C2.35 5.32 0.7 6.64 -1 8 C-1.04241723 5.66705225 -1.04092937 3.33297433 -1 1 C-0.67 0.67 -0.34 0.34 0 0 Z " fill="#2770A0" transform="translate(83,108)"/>
<path d="M0 0 C4.24822374 0.47202486 6.19989709 2.96655518 9 6 C8.01 6.495 8.01 6.495 7 7 C7 6.34 7 5.68 7 5 C5.35 5 3.7 5 2 5 C2 3.68 2 2.36 2 1 C1.34 0.67 0.68 0.34 0 0 Z " fill="#515559" transform="translate(178,24)"/>
<path d="M0 0 C1.875 0.3125 1.875 0.3125 4 1 C4.66 1.99 5.32 2.98 6 4 C5.01 5.485 5.01 5.485 4 7 C3.34 7 2.68 7 2 7 C2 5.02 2 3.04 2 1 C1.34 0.67 0.68 0.34 0 0 Z " fill="#4A4D50" transform="translate(231,68)"/>
<path d="M0 0 C3.34373475 0.55728913 6.03312999 1.35173889 9 3 C8.67 3.66 8.34 4.32 8 5 C4.62496331 3.8141763 2.35277269 2.72426311 0 0 Z " fill="#35769C" transform="translate(88,245)"/>
<path d="M0 0 C1.65 0 3.3 0 5 0 C5.12375 0.639375 5.2475 1.27875 5.375 1.9375 C5.684375 2.9584375 5.684375 2.9584375 6 4 C6.66 4.33 7.32 4.66 8 5 C5 5 5 5 2.3125 2.5 C1.549375 1.675 0.78625 0.85 0 0 Z " fill="#3478A4" transform="translate(69,229)"/>
<path d="M0 0 C0.33 0.99 0.66 1.98 1 3 C-0.95216435 4.95216435 -2.53199953 5.84826645 -5 7 C-5 6.01 -5 5.02 -5 4 C-2.5 1.8125 -2.5 1.8125 0 0 Z " fill="#2F719D" transform="translate(179,183)"/>
<path d="M0 0 C-1.44390925 3.80666984 -3.34952803 5.26602582 -7 7 C-7.66 6.67 -8.32 6.34 -9 6 C-7.8803014 4.99406757 -6.7540588 3.9954151 -5.625 3 C-4.68527344 2.1646875 -4.68527344 2.1646875 -3.7265625 1.3125 C-2 0 -2 0 0 0 Z " fill="#606367" transform="translate(69,137)"/>
<path d="M0 0 C0.99 0 1.98 0 3 0 C3 0.66 3 1.32 3 2 C1.46875 3.2890625 1.46875 3.2890625 -0.5 4.625 C-1.1496875 5.07101563 -1.799375 5.51703125 -2.46875 5.9765625 C-2.9740625 6.31429687 -3.479375 6.65203125 -4 7 C-4 6.01 -4 5.02 -4 4 C-3.34 4 -2.68 4 -2 4 C-1.34 2.68 -0.68 1.36 0 0 Z " fill="#4D5356" transform="translate(39,102)"/>
<path d="M0 0 C0.66 0 1.32 0 2 0 C1.67 1.98 1.34 3.96 1 6 C-0.65 5.67 -2.3 5.34 -4 5 C-2.71937515 3.2925002 -1.38232443 1.62626404 0 0 Z " fill="#4E5153" transform="translate(29,77)"/>
<path d="M0 0 C0.66 0.33 1.32 0.66 2 1 C1.34 2.98 0.68 4.96 0 7 C-1.32 6.34 -2.64 5.68 -4 5 C-2.68 3.35 -1.36 1.7 0 0 Z " fill="#4E5256" transform="translate(75,39)"/>
<path d="M0 0 C2.31 0 4.62 0 7 0 C5.71937515 1.7074998 4.38232443 3.37373596 3 5 C2.34 5 1.68 5 1 5 C0.67 3.35 0.34 1.7 0 0 Z " fill="#296C99" transform="translate(221,178)"/>
<path d="M0 0 C0.33 0.99 0.66 1.98 1 3 C0.34 3 -0.32 3 -1 3 C-1.33 3.99 -1.66 4.98 -2 6 C-3.32 5.67 -4.64 5.34 -6 5 C-4.02 3.35 -2.04 1.7 0 0 Z " fill="#37739B" transform="translate(190,174)"/>
<path d="M0 0 C0.66 0 1.32 0 2 0 C2 0.66 2 1.32 2 2 C2.66 2 3.32 2 4 2 C3.34 3.98 2.68 5.96 2 8 C1.67 8 1.34 8 1 8 C0.34 5.69 -0.32 3.38 -1 1 C-0.67 0.67 -0.34 0.34 0 0 Z " fill="#266F9E" transform="translate(236,161)"/>
<path d="M0 0 C0.33 0.99 0.66 1.98 1 3 C-0.98 3.99 -0.98 3.99 -3 5 C-3 5.66 -3 6.32 -3 7 C-3.66 6.67 -4.32 6.34 -5 6 C-2.25 1.125 -2.25 1.125 0 0 Z " fill="#256D9C" transform="translate(17,135)"/>
<path d="M0 0 C0.33 0.99 0.66 1.98 1 3 C-0.25 4.5625 -0.25 4.5625 -2 6 C-4.1875 5.6875 -4.1875 5.6875 -6 5 C-4.02 3.35 -2.04 1.7 0 0 Z " fill="#4F5559" transform="translate(77,129)"/>
<path d="M0 0 C0.33 0.99 0.66 1.98 1 3 C-0.8125 4.5625 -0.8125 4.5625 -3 6 C-3.99 5.67 -4.98 5.34 -6 5 C-4.02 3.35 -2.04 1.7 0 0 Z " fill="#3075A4" transform="translate(58,100)"/>
<path d="M0 0 C0 3 0 3 -1 5 C-1.66 5 -2.32 5 -3 5 C-3.66 6.32 -4.32 7.64 -5 9 C-5.33 8.01 -5.66 7.02 -6 6 C-4.02 4.02 -2.04 2.04 0 0 Z " fill="#515559" transform="translate(16,88)"/>
<path d="M0 0 C0.66 0.99 1.32 1.98 2 3 C-0.5654594 5.5654594 -2.47686668 5.54046087 -6 6 C-4 4 -2 2 0 0 Z " fill="#5B5E61" transform="translate(57,54)"/>
<path d="M0 0 C0.99 0.66 1.98 1.32 3 2 C1.71034824 3.37562854 0.37310707 4.70766393 -1 6 C-1.66 6 -2.32 6 -3 6 C-3 5.01 -3 4.02 -3 3 C-2.34 3 -1.68 3 -1 3 C-0.67 2.01 -0.34 1.02 0 0 Z " fill="#30739F" transform="translate(195,202)"/>
<path d="M0 0 C0.33 0 0.66 0 1 0 C1.38897161 1.62171239 1.76078298 3.24754925 2.125 4.875 C2.33382812 5.77992188 2.54265625 6.68484375 2.7578125 7.6171875 C2.83773437 8.40351563 2.91765625 9.18984375 3 10 C2.34 10.66 1.68 11.32 1 12 C0.03929566 9.11788698 -0.10581883 7.30149956 -0.0625 4.3125 C-0.05347656 3.50425781 -0.04445312 2.69601563 -0.03515625 1.86328125 C-0.02355469 1.24839844 -0.01195312 0.63351563 0 0 Z " fill="#3C77A0" transform="translate(37,156)"/>
<path d="M0 0 C-0.75 1.9375 -0.75 1.9375 -2 4 C-4.125 4.75 -4.125 4.75 -6 5 C-3.74193548 0 -3.74193548 0 0 0 Z " fill="#4C5053" transform="translate(181,137)"/>
<path d="M0 0 C0.66 0.33 1.32 0.66 2 1 C2.625 3.0625 2.625 3.0625 3 5 C2.01 5 1.02 5 0 5 C-0.66 3.68 -1.32 2.36 -2 1 C-1.34 0.67 -0.68 0.34 0 0 Z " fill="#45494D" transform="translate(124,11)"/>
</svg>
